<svg xmlns="http://www.w3.org/2000/svg" xmlns:xlink="http://www.w3.org/1999/xlink" width="500" zoomAndPan="magnify" viewBox="0 0 375 374.999991" height="500" preserveAspectRatio="xMidYMid meet" version="1.0"><defs><g/><clipPath id="534e4df510"><path d="M 39.738281 52.265625 L 345.300781 52.265625 L 345.300781 293.664062 L 39.738281 293.664062 Z M 39.738281 52.265625 " clip-rule="nonzero"/></clipPath><clipPath id="ff3f480dd9"><path d="M 44 76 L 326 76 L 326 260 L 44 260 Z M 44 76 " clip-rule="nonzero"/></clipPath><clipPath id="db665006b3"><path d="M 150.710938 17.121094 L 375.332031 186.160156 L 264.171875 333.875 L 39.550781 164.835938 Z M 150.710938 17.121094 " clip-rule="nonzero"/></clipPath><clipPath id="8ba47e66eb"><path d="M 150.710938 17.121094 L 375.332031 186.160156 L 264.171875 333.875 L 39.550781 164.835938 Z M 150.710938 17.121094 " clip-rule="nonzero"/></clipPath><clipPath id="9e9eb8de32"><path d="M 150.710938 17.121094 L 375.332031 186.160156 L 264.171875 333.875 L 39.550781 164.835938 Z M 150.710938 17.121094 " clip-rule="nonzero"/></clipPath></defs><g clip-path="url(#534e4df510)"><path fill="#ffffff" d="M 329.632812 154.089844 C 329.628906 147.582031 327.09375 141.460938 322.492188 136.855469 L 260.835938 75.207031 C 256.234375 70.601562 250.113281 68.066406 243.605469 68.0625 L 79.78125 68.0625 C 66.34375 68.0625 55.40625 78.976562 55.40625 92.390625 L 55.40625 253.507812 C 55.414062 266.9375 66.347656 277.867188 79.78125 277.867188 L 305.257812 277.867188 C 318.695312 277.867188 329.632812 266.933594 329.632812 253.492188 Z M 39.738281 253.511719 L 39.738281 92.390625 C 39.738281 70.335938 57.703125 52.390625 79.78125 52.390625 L 243.605469 52.390625 C 254.304688 52.394531 264.355469 56.5625 271.917969 64.125 L 333.566406 125.777344 C 341.132812 133.335938 345.300781 143.390625 345.300781 154.085938 L 345.300781 253.492188 C 345.300781 275.574219 327.335938 293.539062 305.257812 293.539062 L 79.78125 293.539062 C 57.710938 293.539062 39.75 275.582031 39.738281 253.511719 " fill-opacity="1" fill-rule="nonzero"/></g><g clip-path="url(#ff3f480dd9)"><g clip-path="url(#db665006b3)"><g clip-path="url(#8ba47e66eb)"><g clip-path="url(#9e9eb8de32)"><path fill="#cccccc" d="M 223.953125 82.988281 C 168.664062 65.335938 105.785156 81.949219 66.847656 129.636719 C 57.074219 141.609375 49.523438 154.679688 44.140625 168.328125 L 44.605469 168.480469 C 49.902344 155.027344 57.386719 142.160156 67.101562 130.386719 C 69.214844 127.824219 71.40625 125.359375 73.660156 122.984375 C 81.546875 131.179688 89.984375 138.976562 98.941406 146.34375 C 92.03125 157.289062 86.339844 168.859375 81.863281 180.726562 L 82.195312 180.835938 C 86.652344 169.019531 92.355469 157.519531 99.3125 146.652344 C 106.667969 152.683594 114.378906 158.421875 122.445312 163.828125 C 127.835938 167.445312 133.300781 170.851562 138.839844 174.070312 C 135.613281 181.457031 132.648438 188.96875 129.960938 196.535156 L 130.152344 196.597656 C 132.832031 189.042969 135.800781 181.542969 139.03125 174.175781 C 156.445312 184.277344 174.523438 192.414062 192.988281 198.636719 L 184.136719 226.605469 L 193.449219 198.789062 C 211.488281 204.835938 229.890625 209.066406 248.40625 211.515625 C 246.730469 218.808594 244.777344 226.171875 242.546875 233.535156 L 242.738281 233.601562 C 244.972656 226.226562 246.929688 218.847656 248.625 211.546875 C 263.539062 213.507812 278.527344 214.324219 293.453125 214.015625 C 292.472656 225.390625 290.390625 236.882812 287.203125 248.214844 L 287.5625 248.332031 C 290.761719 236.949219 292.886719 225.417969 293.925781 214 C 304.039062 213.773438 314.132812 213.03125 324.148438 211.78125 C 325.367188 227.546875 323.96875 243.5 319.867188 258.949219 L 320.339844 259.105469 C 334.542969 205.554688 317.398438 146.230469 271.695312 108.917969 C 260.195312 99.53125 247.695312 92.195312 234.628906 86.863281 C 233.53125 86.382812 232.421875 85.929688 231.308594 85.5 C 230.46875 85.136719 229.613281 84.824219 228.742188 84.558594 C 228.675781 84.539062 228.605469 84.523438 228.535156 84.503906 C 227.929688 84.296875 227.324219 84.085938 226.714844 83.890625 C 226.59375 83.855469 226.472656 83.824219 226.351562 83.785156 C 225.554688 83.515625 224.753906 83.242188 223.953125 82.984375 Z M 227.285156 86.613281 C 227.628906 86.734375 227.972656 86.855469 228.316406 86.980469 L 222.988281 103.839844 C 214.378906 100.859375 206.097656 97.328125 198.167969 93.308594 C 208.648438 86.625 218.628906 84.25 227.285156 86.613281 Z M 230.589844 87.8125 C 230.796875 87.890625 231 87.980469 231.207031 88.058594 C 236.785156 90.667969 241.699219 95.484375 245.679688 102.675781 C 247.089844 105.226562 248.335938 108.011719 249.441406 111 C 241.609375 109.449219 233.789062 107.417969 226.023438 104.867188 C 225.679688 104.753906 225.34375 104.628906 225 104.515625 Z M 216.886719 83.835938 C 210.554688 84.800781 203.78125 87.761719 196.804688 92.601562 C 191.796875 90.015625 186.925781 87.21875 182.210938 84.25 C 193.921875 81.824219 205.632812 81.65625 216.886719 83.835938 Z M 240.796875 92.507812 C 247.847656 96.394531 254.519531 101.417969 260.675781 107.605469 C 262.570312 109.511719 264.378906 111.5 266.113281 113.558594 C 261.066406 113.003906 256.011719 112.257812 250.964844 111.300781 C 249.695312 107.410156 248.183594 103.832031 246.4375 100.621094 C 244.726562 97.472656 242.839844 94.769531 240.796875 92.507812 Z M 201.707031 80.113281 C 194.515625 80.125 187.21875 81.023438 179.9375 82.804688 C 177.722656 81.367188 175.550781 79.886719 173.402344 78.367188 C 182.835938 78.039062 192.320312 78.617188 201.707031 80.113281 Z M 255.890625 100.339844 C 261.023438 103.527344 266.015625 107.050781 270.832031 110.941406 C 272.203125 112.050781 273.546875 113.183594 274.867188 114.332031 C 272.828125 114.199219 270.78125 114.035156 268.738281 113.839844 C 266.472656 110.945312 264.050781 108.175781 261.488281 105.566406 C 259.671875 103.71875 257.796875 101.984375 255.890625 100.339844 Z M 170.429688 78.496094 C 172.757812 80.191406 175.125 81.839844 177.539062 83.4375 C 169.035156 85.742188 160.5625 89.230469 152.300781 93.867188 C 148.148438 90.492188 144.132812 86.976562 140.269531 83.339844 C 150.121094 80.679688 160.238281 79.058594 170.429688 78.496094 Z M 277.132812 116.339844 C 286.113281 124.464844 293.847656 133.46875 300.3125 143.109375 C 295.277344 143.320312 290.210938 143.371094 285.148438 143.234375 C 281.335938 133.28125 276.382812 124.058594 270.28125 115.851562 C 272.566406 116.054688 274.851562 116.21875 277.132812 116.339844 Z M 179.628906 84.820312 C 179.632812 84.820312 179.636719 84.828125 179.640625 84.824219 C 184.625 88.035156 189.785156 91.039062 195.105469 93.820312 C 189.085938 98.242188 182.925781 104.042969 176.78125 111.132812 C 168.585938 106.144531 160.808594 100.6875 153.46875 94.804688 C 162.039062 90.238281 170.820312 86.894531 179.628906 84.820312 Z M 267.804688 115.621094 C 274.351562 123.824219 279.679688 133.113281 283.78125 143.195312 C 274.511719 142.886719 265.21875 141.976562 255.953125 140.46875 C 255.386719 130.40625 253.945312 121.246094 251.582031 113.304688 C 256.992188 114.308594 262.40625 115.078125 267.804688 115.621094 Z M 196.394531 94.484375 C 204.679688 98.742188 213.363281 102.464844 222.417969 105.597656 L 214.828125 129.582031 C 208.230469 127.128906 201.6875 124.34375 195.21875 121.203125 C 189.089844 118.226562 183.160156 114.988281 177.429688 111.527344 C 183.792969 104.417969 190.175781 98.714844 196.394531 94.484375 Z M 250.164062 113.023438 C 252.824219 120.925781 254.492188 130.152344 255.21875 140.351562 C 242.171875 138.183594 229.191406 134.804688 216.40625 130.15625 L 224.402344 106.265625 C 224.738281 106.378906 225.074219 106.5 225.410156 106.609375 C 233.625 109.308594 241.890625 111.429688 250.164062 113.023438 Z M 139.136719 83.648438 C 143.097656 87.339844 147.21875 90.898438 151.476562 94.320312 C 141.765625 99.867188 132.363281 107.011719 123.53125 115.667969 C 116.957031 110.144531 110.703125 104.3125 104.773438 98.207031 C 115.617188 91.832031 127.179688 86.980469 139.136719 83.648438 Z M 300.828125 143.875 C 306.996094 153.203125 311.972656 163.113281 315.753906 173.382812 C 308.269531 174.261719 300.726562 174.804688 293.148438 175.015625 C 291.664062 164.132812 289.085938 153.679688 285.40625 143.914062 C 290.558594 144.074219 295.703125 144.070312 300.828125 143.875 Z M 152.640625 95.246094 C 160.097656 101.15625 167.992188 106.652344 176.320312 111.664062 C 169.6875 119.390625 163.078125 128.625 156.679688 139.257812 C 145.128906 132.363281 134.277344 124.648438 124.167969 116.207031 C 133.152344 107.621094 142.746094 100.617188 152.640625 95.246094 Z M 284.058594 143.871094 C 287.960938 153.632812 290.71875 164.113281 292.347656 175.039062 C 279.976562 175.339844 267.515625 174.742188 255.058594 173.183594 C 256.183594 161.832031 256.511719 151.011719 255.984375 141.0625 C 265.332031 142.601562 274.707031 143.527344 284.054688 143.871094 Z M 176.976562 112.050781 C 182.550781 115.378906 188.308594 118.511719 194.261719 121.402344 C 200.992188 124.671875 207.800781 127.558594 214.675781 130.101562 L 204.730469 161.523438 C 199.027344 159.566406 193.359375 157.398438 187.722656 155.007812 C 177.015625 150.460938 166.769531 145.246094 157.027344 139.457031 C 163.523438 128.832031 170.234375 119.65625 176.976562 112.050781 Z M 255.269531 140.941406 C 255.945312 150.875 255.730469 161.722656 254.675781 173.128906 C 238.300781 171.050781 221.9375 167.339844 205.789062 161.882812 L 216.238281 130.671875 C 229.09375 135.324219 242.152344 138.734375 255.269531 140.941406 Z M 103.601562 98.917969 C 109.644531 105.054688 116.015625 110.921875 122.714844 116.46875 C 115.4375 123.710938 108.558594 131.988281 102.253906 141.273438 C 101.289062 142.695312 100.355469 144.125 99.433594 145.570312 C 90.570312 138.191406 82.234375 130.363281 74.441406 122.144531 C 83.257812 112.992188 93.085938 105.242188 103.601562 98.917969 Z M 316.085938 174.273438 C 320.292969 185.929688 322.9375 198.035156 324.015625 210.269531 C 314.078125 211.597656 304.070312 212.40625 294.03125 212.710938 C 295.089844 200.144531 294.839844 187.726562 293.273438 175.808594 C 300.917969 175.636719 308.535156 175.121094 316.085938 174.273438 Z M 123.355469 116.988281 C 133.585938 125.40625 144.566406 133.101562 156.246094 139.976562 C 153.21875 145.039062 150.242188 150.410156 147.335938 156.085938 C 144.4375 161.746094 141.699219 167.53125 139.128906 173.394531 C 133.933594 170.359375 128.800781 167.136719 123.734375 163.738281 C 115.378906 158.136719 107.40625 152.171875 99.816406 145.875 C 100.660156 144.574219 101.511719 143.269531 102.390625 141.984375 C 108.832031 132.582031 115.878906 124.238281 123.355469 116.988281 Z M 292.46875 175.839844 C 294.179688 187.742188 294.546875 200.15625 293.558594 212.722656 C 278.667969 213.152344 263.71875 212.453125 248.835938 210.585938 C 251.722656 197.984375 253.792969 185.617188 254.992188 173.8125 C 267.515625 175.40625 280.03125 176.085938 292.46875 175.839844 Z M 156.578125 140.171875 C 166.132812 145.777344 176.148438 150.835938 186.621094 155.28125 C 192.554688 157.800781 198.53125 160.0625 204.535156 162.109375 L 193.199219 197.9375 C 174.753906 191.761719 156.699219 183.636719 139.320312 173.5 C 141.828125 167.824219 144.492188 162.230469 147.316406 156.75 C 150.335938 150.890625 153.429688 145.363281 156.578125 140.171875 Z M 254.609375 173.757812 C 253.492188 185.554688 251.476562 197.941406 248.617188 210.558594 C 230.101562 208.222656 211.703125 204.089844 193.675781 198.09375 L 205.597656 162.472656 C 221.785156 167.90625 238.195312 171.640625 254.613281 173.757812 Z M 254.609375 173.757812 " fill-opacity="1" fill-rule="nonzero"/></g></g></g></g><g fill="#fffbfa" fill-opacity="1"><g transform="translate(79.465687, 351.971985)"><g><path d="M 9.84375 0 C 17.957031 0 21.492188 -3.996094 21.492188 -10.664062 C 21.492188 -17.441406 17.847656 -21.382812 9.84375 -21.382812 L 2.6875 -21.382812 C 2.3125 -21.382812 2.117188 -21.1875 2.117188 -20.8125 L 2.117188 -0.570312 C 2.117188 -0.195312 2.3125 0 2.6875 0 Z M 7.863281 -16.539062 L 9.871094 -16.539062 C 13.878906 -16.539062 15.800781 -14.449219 15.800781 -10.746094 C 15.800781 -7.042969 13.878906 -4.84375 9.871094 -4.84375 L 7.863281 -4.84375 Z M 7.863281 -16.539062 "/></g></g></g><g fill="#fffbfa" fill-opacity="1"><g transform="translate(125.078942, 351.971985)"><g><path d="M 7.238281 0 C 7.613281 0 7.808594 -0.195312 7.808594 -0.570312 L 7.808594 -20.8125 C 7.808594 -21.1875 7.613281 -21.382812 7.238281 -21.382812 L 2.6875 -21.382812 C 2.3125 -21.382812 2.117188 -21.1875 2.117188 -20.8125 L 2.117188 -0.570312 C 2.117188 -0.195312 2.3125 0 2.6875 0 Z M 7.238281 0 "/></g></g></g><g fill="#fffbfa" fill-opacity="1"><g transform="translate(157.818313, 351.971985)"><g><path d="M 15.9375 -8.03125 C 18.039062 -9.132812 19.238281 -11.414062 19.238281 -14.503906 C 19.238281 -18.167969 17.59375 -21.382812 11.566406 -21.382812 L 2.6875 -21.382812 C 2.3125 -21.382812 2.117188 -21.1875 2.117188 -20.8125 L 2.117188 -0.570312 C 2.117188 -0.195312 2.3125 0 2.6875 0 L 7.265625 0 C 7.640625 0 7.835938 -0.195312 7.835938 -0.570312 L 7.835938 -7.292969 L 10.246094 -7.292969 L 13.683594 -0.429688 C 13.824219 -0.140625 14.03125 0 14.339844 0 L 19.53125 0 C 19.960938 0 20.128906 -0.277344 19.933594 -0.683594 Z M 10.578125 -16.539062 C 11.722656 -16.539062 13.542969 -16.539062 13.542969 -14.449219 C 13.542969 -12.140625 11.375 -12.140625 10.578125 -12.140625 L 7.835938 -12.140625 L 7.835938 -16.539062 Z M 10.578125 -16.539062 "/></g></g></g><g fill="#fffbfa" fill-opacity="1"><g transform="translate(201.789271, 351.971985)"><g><path d="M 15.996094 0 C 16.371094 0 16.566406 -0.195312 16.566406 -0.570312 L 16.566406 -4.273438 C 16.566406 -4.648438 16.371094 -4.84375 15.996094 -4.84375 L 7.808594 -4.84375 L 7.808594 -7.351562 L 14.882812 -7.351562 C 15.257812 -7.351562 15.453125 -7.558594 15.453125 -7.921875 L 15.453125 -11.34375 C 15.453125 -11.722656 15.257812 -11.914062 14.882812 -11.914062 L 7.808594 -11.914062 L 7.808594 -16.539062 L 15.996094 -16.539062 C 16.371094 -16.539062 16.566406 -16.734375 16.566406 -17.109375 L 16.566406 -20.8125 C 16.566406 -21.1875 16.371094 -21.382812 15.996094 -21.382812 L 2.6875 -21.382812 C 2.3125 -21.382812 2.117188 -21.1875 2.117188 -20.8125 L 2.117188 -0.570312 C 2.117188 -0.195312 2.3125 0 2.6875 0 Z M 15.996094 0 "/></g></g></g><g fill="#fffbfa" fill-opacity="1"><g transform="translate(242.795769, 351.971985)"><g><path d="M 12.835938 0.570312 C 16.941406 0.570312 20.242188 -0.972656 22.257812 -3.535156 C 22.46875 -3.785156 22.382812 -4.023438 22.0625 -4.246094 L 18.304688 -6.75 C 18.011719 -6.960938 17.761719 -6.90625 17.539062 -6.613281 C 16.480469 -5.332031 14.851562 -4.566406 12.835938 -4.566406 C 9.300781 -4.566406 6.960938 -6.90625 6.960938 -10.691406 C 6.960938 -14.476562 9.300781 -16.816406 12.835938 -16.816406 C 14.851562 -16.816406 16.480469 -16.050781 17.539062 -14.769531 C 17.761719 -14.476562 18.011719 -14.421875 18.304688 -14.628906 L 22.0625 -17.136719 C 22.382812 -17.359375 22.441406 -17.625 22.203125 -17.902344 C 20.15625 -20.433594 16.871094 -21.953125 12.835938 -21.953125 C 5.875 -21.953125 1.253906 -17.566406 1.253906 -10.691406 C 1.253906 -3.8125 5.875 0.570312 12.835938 0.570312 Z M 12.835938 0.570312 "/></g></g></g><g fill="#fffbfa" fill-opacity="1"><g transform="translate(288.896149, 351.971985)"><g><path d="M 10.609375 0 C 10.96875 0 11.179688 -0.195312 11.179688 -0.570312 L 11.179688 -16.539062 L 15.480469 -16.539062 C 15.855469 -16.539062 16.050781 -16.734375 16.050781 -17.109375 L 16.050781 -20.8125 C 16.050781 -21.1875 15.855469 -21.382812 15.480469 -21.382812 L 1.140625 -21.382812 C 0.765625 -21.382812 0.570312 -21.1875 0.570312 -20.8125 L 0.570312 -17.109375 C 0.570312 -16.734375 0.765625 -16.539062 1.140625 -16.539062 L 5.441406 -16.539062 L 5.441406 -0.570312 C 5.441406 -0.195312 5.652344 0 6.011719 0 Z M 10.609375 0 "/></g></g></g><g fill="#fffbfa" fill-opacity="1"><g transform="translate(67.18883, 241.707411)"><g><path d="M 6.390625 0 L 6.390625 -144.28125 L 64.171875 -144.28125 L 64.171875 -116.40625 L 35.78125 -116.40625 L 35.78125 -88.359375 L 62.984375 -88.359375 L 62.984375 -61.140625 L 35.78125 -61.140625 L 35.78125 -28.046875 L 66.015625 -28.046875 L 66.015625 0 Z M 6.390625 0 "/></g></g></g><g fill="#fffbfa" fill-opacity="1"><g transform="translate(153.996659, 244.068307)"><g><path d="M 17.4375 0.578125 C 11.820312 0.578125 7.765625 -0.8125 5.265625 -3.59375 C 2.765625 -6.382812 1.515625 -10.878906 1.515625 -17.078125 L 1.515625 -23.140625 L 13.6875 -23.140625 L 13.6875 -15.421875 C 13.6875 -12.347656 14.675781 -10.8125 16.65625 -10.8125 C 17.757812 -10.8125 18.523438 -11.132812 18.953125 -11.78125 C 19.390625 -12.4375 19.609375 -13.53125 19.609375 -15.0625 C 19.609375 -17.082031 19.363281 -18.753906 18.875 -20.078125 C 18.394531 -21.398438 17.78125 -22.503906 17.03125 -23.390625 C 16.289062 -24.273438 14.960938 -25.65625 13.046875 -27.53125 L 7.71875 -32.875 C 3.582031 -36.90625 1.515625 -41.375 1.515625 -46.28125 C 1.515625 -51.5625 2.726562 -55.582031 5.15625 -58.34375 C 7.582031 -61.101562 11.125 -62.484375 15.78125 -62.484375 C 21.351562 -62.484375 25.363281 -61.003906 27.8125 -58.046875 C 30.269531 -55.097656 31.5 -50.476562 31.5 -44.1875 L 18.890625 -44.1875 L 18.8125 -48.4375 C 18.8125 -49.25 18.582031 -49.894531 18.125 -50.375 C 17.664062 -50.863281 17.03125 -51.109375 16.21875 -51.109375 C 15.257812 -51.109375 14.535156 -50.84375 14.046875 -50.3125 C 13.566406 -49.78125 13.328125 -49.054688 13.328125 -48.140625 C 13.328125 -46.128906 14.484375 -44.039062 16.796875 -41.875 L 24 -34.953125 C 25.6875 -33.316406 27.082031 -31.765625 28.1875 -30.296875 C 29.289062 -28.835938 30.175781 -27.109375 30.84375 -25.109375 C 31.519531 -23.117188 31.859375 -20.753906 31.859375 -18.015625 C 31.859375 -11.910156 30.738281 -7.285156 28.5 -4.140625 C 26.269531 -0.992188 22.582031 0.578125 17.4375 0.578125 Z M 17.4375 0.578125 "/></g></g></g><g fill="#fffbfa" fill-opacity="1"><g transform="translate(205.964007, 244.068307)"><g><path d="M 2.15625 0 L 2.15625 -61.921875 L 14.125 -61.921875 L 14.125 0 Z M 2.15625 0 "/></g></g></g><g fill="#fffbfa" fill-opacity="1"><g transform="translate(241.066912, 244.068307)"><g><path d="M 2.734375 0 L 2.734375 -61.921875 L 21.625 -61.921875 L 26.8125 -24.140625 L 32 -61.921875 L 51.03125 -61.921875 L 51.03125 0 L 39.71875 0 L 39.71875 -44.609375 L 32.578125 0 L 21.484375 0 L 13.90625 -44.609375 L 13.90625 0 Z M 2.734375 0 "/></g></g></g></svg>